<svg xmlns="http://www.w3.org/2000/svg" viewBox="0 0 256 256"><defs><style>.cls-1{fill:#78909c;}.cls-2{fill:#fff;}</style></defs><g id="レイヤー_3" data-name="レイヤー 3"><path class="cls-1" d="M96,224H16A16,16,0,0,1,0,208H0a38.63,38.63,0,0,1,11.31-27.31L64,128Z"/><path class="cls-1" d="M160.07,224h80a16,16,0,0,0,16-16h0a38.63,38.63,0,0,0-11.31-27.31L192.07,128Z"/><path class="cls-1" d="M64,128l40.84-81.69A25.9,25.9,0,0,1,128,32h0a25.9,25.9,0,0,1,23.16,14.31L192,128Z"/><path class="cls-1" d="M126.64,64C75.15,64.72,33,106.58,32,158.06c0,1,0,2.05,0,3.07C32.41,196.05,61.2,224,96.12,224h63.75c35.08,0,63.86-28.18,64.13-63.26V160A96,96,0,0,0,126.64,64Z"/><path class="cls-2" d="M96.12,224h63.75a64.26,64.26,0,0,0,57.23-35,71.56,71.56,0,0,0-57.1,3h0a71.57,71.57,0,0,1-64,0h0a71.55,71.55,0,0,0-57.13-3A64.3,64.3,0,0,0,96.12,224Z"/></g><g id="レイヤー_5" data-name="レイヤー 5"><rect x="60" y="144" width="8" height="24" rx="2"/><rect x="188" y="144" width="8" height="24" rx="2"/><path d="M244.76,180.69,224.57,160.5a2,2,0,0,1-.57-1.39A96.07,96.07,0,0,0,164.06,71a1.94,1.94,0,0,1-1-.94l-11.65-23.3a26.37,26.37,0,0,0-19.06-14.4,25.91,25.91,0,0,0-27.48,14L92.93,70.14a2,2,0,0,1-1,.94c-34.47,14.11-59.12,47.75-59.89,87,0,.37,0,.73,0,1.1a2,2,0,0,1-.59,1.42L11.31,180.69A38.63,38.63,0,0,0,0,208H0a16,16,0,0,0,16,16H240.07a16,16,0,0,0,16-16h0A38.63,38.63,0,0,0,244.76,180.69ZM112,49.89A17.79,17.79,0,0,1,127.77,40a18.35,18.35,0,0,1,16.45,10.34l6.52,13a2,2,0,0,1-2.22,2.84A96.35,96.35,0,0,0,128,64h-1.36a95.32,95.32,0,0,0-19.16,2.21,2,2,0,0,1-2.23-2.84ZM40,158.22A88.29,88.29,0,0,1,126.75,72H128a88.12,88.12,0,0,1,88,88v.72a55,55,0,0,1-4.22,20.71,2,2,0,0,1-2.31,1.14,76,76,0,0,0-51.26,5.89,67.86,67.86,0,0,1-60.42,0,75.89,75.89,0,0,0-51.28-5.88,2,2,0,0,1-2.31-1.15A54.44,54.44,0,0,1,40,161C40,160.1,40,159.16,40,158.22ZM16,216a8,8,0,0,1-8-7.88,30.48,30.48,0,0,1,9-21.78l13.18-13.18a2,2,0,0,1,3.37,1,62.6,62.6,0,0,0,3.64,11.22h0a64.05,64.05,0,0,0,22.08,27A2,2,0,0,1,58.08,216Zm80.12,0a56.31,56.31,0,0,1-45.54-23.25,2,2,0,0,1,1.27-3.15,67.75,67.75,0,0,1,42.36,6,75.91,75.91,0,0,0,67.58,0,67.85,67.85,0,0,1,42.32-6,2,2,0,0,1,1.29,3.16A56.26,56.26,0,0,1,159.87,216Zm144,0H197.89a2,2,0,0,1-1.16-3.62,64.29,64.29,0,0,0,18.41-19.84h0a63.56,63.56,0,0,0,3.68-7.16h0a63.38,63.38,0,0,0,3.66-11.29,2,2,0,0,1,3.37-1l13.25,13.25a30.39,30.39,0,0,1,9,21.78A8,8,0,0,1,240.07,216Z"/></g></svg>