<svg xmlns="http://www.w3.org/2000/svg" viewBox="0 0 256 256"><defs><style>.cls-1{fill:#78909c;}.cls-2{fill:#fff;}</style></defs><g id="レイヤー_3" data-name="レイヤー 3"><path class="cls-1" d="M96,224H16A16,16,0,0,1,0,208H0a38.63,38.63,0,0,1,11.31-27.31L64,128Z"/><path class="cls-1" d="M160.07,224h80a16,16,0,0,0,16-16h0a38.63,38.63,0,0,0-11.31-27.31L192.07,128Z"/><path class="cls-1" d="M64,128l40.84-81.69A25.9,25.9,0,0,1,128,32h0a25.9,25.9,0,0,1,23.16,14.31L192,128Z"/><path class="cls-1" d="M126.64,64C75.15,64.72,33,106.58,32,158.06c0,1,0,2.05,0,3.07C32.41,196.05,61.2,224,96.12,224h63.75c35.08,0,63.86-28.18,64.13-63.26V160A96,96,0,0,0,126.64,64Z"/><path class="cls-2" d="M96.12,224h63.75a64.26,64.26,0,0,0,57.23-35,71.56,71.56,0,0,0-57.1,3h0a71.57,71.57,0,0,1-64,0h0a71.55,71.55,0,0,0-57.13-3A64.3,64.3,0,0,0,96.12,224Z"/></g><g id="レイヤー_9" data-name="レイヤー 9"><rect x="60" y="140" width="12" height="24" rx="4"/><rect x="184" y="140" width="12" height="24" rx="4"/><path d="M244.76,180.69,224.57,160.5a2,2,0,0,1-.57-1.39A96.07,96.07,0,0,0,164.06,71a1.94,1.94,0,0,1-1-.94l-11.65-23.3a26.37,26.37,0,0,0-19.06-14.4,25.91,25.91,0,0,0-27.48,14L92.93,70.14a2,2,0,0,1-1,.94c-34.47,14.11-59.12,47.75-59.89,87,0,.37,0,.73,0,1.1a2,2,0,0,1-.59,1.42L11.31,180.69A38.63,38.63,0,0,0,0,208H0a16,16,0,0,0,16,16H240.07a16,16,0,0,0,16-16h0A38.63,38.63,0,0,0,244.76,180.69Zm-129.18-129A13.82,13.82,0,0,1,128.19,44a14.29,14.29,0,0,1,12.42,8.06l5.18,10.36a2,2,0,0,1-2.12,2.86A96.33,96.33,0,0,0,128,64h-1.36a96.49,96.49,0,0,0-14.32,1.28,2,2,0,0,1-2.12-2.86ZM44,158.3A84.29,84.29,0,0,1,126.81,76H128a84.09,84.09,0,0,1,84,84v.65a51,51,0,0,1-2.7,16A2,2,0,0,1,207,178a77.88,77.88,0,0,0-49.7,6.68,65.87,65.87,0,0,1-58.64,0A77.94,77.94,0,0,0,49,178a2,2,0,0,1-2.28-1.28A50.62,50.62,0,0,1,44,161C44,160.1,44,159.19,44,158.3ZM16,212a4,4,0,0,1-4-3.93,26.44,26.44,0,0,1,7.8-18.9l11.53-11.53a2,2,0,0,1,3.33.86,63.65,63.65,0,0,0,19.58,30,2,2,0,0,1-1.32,3.5Zm80.12,0a52.32,52.32,0,0,1-41-19.84,2,2,0,0,1,1.36-3.22,65.61,65.61,0,0,1,36.83,6.43,77.9,77.9,0,0,0,69.36,0,65.72,65.72,0,0,1,36.81-6.44,2,2,0,0,1,1.36,3.22,52.25,52.25,0,0,1-41,19.85Zm144,0h-37a2,2,0,0,1-1.32-3.5,63.75,63.75,0,0,0,19.6-30.08,2,2,0,0,1,3.33-.86l11.62,11.61a26.47,26.47,0,0,1,7.79,18.9A4,4,0,0,1,240.07,212Z"/></g></svg>